<svg width="141" height="40" viewBox="0 0 141 40" fill="none" xmlns="http://www.w3.org/2000/svg">
<path d="M134.219 28.7114C133.946 28.7884 133.713 28.8304 133.482 28.8304C132.66 28.8304 132.273 28.4804 132.273 27.4734V19.8699C132.273 15.8764 129.076 13.9319 125.296 13.9319C122.408 13.9319 120.855 14.2819 117.77 15.5194L117.082 19.5484L121.094 19.9749L121.663 18.0024C122.485 17.5759 123.301 17.4989 124.354 17.4989C127.2 17.4989 127.242 19.6324 127.242 21.4159V21.9959C126.343 21.8774 125.331 21.8424 124.354 21.8424C120.342 21.8424 116.168 22.8494 116.168 27.1579C116.168 30.8019 119.049 32.1659 121.586 32.1659C124.431 32.1659 126.223 30.4594 127.235 28.6759C127.467 30.8089 128.753 32.1659 131.093 32.1659C132.182 32.1659 133.313 31.8584 134.247 31.3474L134.219 28.7109V28.7114ZM123.427 28.5994C121.909 28.5994 121.361 27.7044 121.361 26.5779C121.361 24.6754 122.921 24.1719 124.713 24.1719C125.528 24.1719 126.427 24.2909 127.249 24.4029C127.13 27.3194 125.218 28.5994 123.427 28.5994ZM116.674 5.08436L109.071 31.7819H104.118L111.721 5.08486H116.674V5.08436ZM106.465 5.08436L98.8621 31.7819H93.9154L101.518 5.08486H106.465V5.08436ZM85.3571 14.2824H90.6203V20.5629H85.3571V14.2824ZM85.3571 25.4939H90.6203V31.7819H85.3571V25.4939ZM77.6985 25.2629L81.6752 25.6479L80.5863 31.7819H65.2263L64.7205 29.1449L74.3888 18.0869H68.8941L68.1145 20.8009L64.4884 20.4089L65.1138 14.2754H80.5511L80.9449 16.9119L71.1917 27.9769H76.8833L77.6985 25.2629ZM52.5085 13.9329C46.1915 13.9329 43.0722 18.1639 43.0722 23.2839C43.0722 28.8724 46.8168 32.1664 52.2342 32.1664C57.8484 32.1664 61.903 28.6344 61.903 23.0464C61.903 18.1569 58.8184 13.9324 52.5085 13.9324V13.9329ZM52.3889 28.3264C49.6629 28.3264 48.2575 25.9974 48.2575 22.9689C48.2575 19.6679 49.8523 17.7724 52.4316 17.7724C54.806 17.7724 56.7173 19.3599 56.7173 22.8924C56.7173 26.2284 55.0029 28.3264 52.3889 28.3264ZM38.5469 27.9769H40.8866V31.7819H33.5158V21.9269C33.5158 18.8984 32.5042 17.7369 30.5156 17.7369C28.0985 17.7369 27.122 19.4439 27.122 21.8919V27.9769H29.4617V31.7819H22.098V21.9269C22.098 18.8984 21.0858 17.7369 19.0977 17.7369C16.6806 17.7369 15.7036 19.4439 15.7036 21.8919V27.9769H19.0555V31.7819H8.33984V27.9769H10.6801V18.0799H8.33984V14.2749H15.7036V16.9119C16.758 15.0519 18.5919 13.9254 21.0441 13.9254C23.5808 13.9254 25.9135 15.1284 26.7774 17.6884C27.7544 15.3594 29.7425 13.9254 32.5112 13.9254C35.6657 13.9254 38.5539 15.8279 38.5539 19.9754V27.9769H38.5469Z" fill="black"/>
</svg>
