<svg width="501" height="420" viewBox="0 0 501 420" fill="none" xmlns="http://www.w3.org/2000/svg">
<mask id="mask0_3232_18005" style="mask-type:alpha" maskUnits="userSpaceOnUse" x="64" y="36" width="361" height="360">
<path d="M424.199 216C424.199 315.411 343.61 396 244.199 396C144.788 396 64.1992 315.411 64.1992 216C64.1992 116.589 144.788 36 244.199 36C343.61 36 424.199 116.589 424.199 216Z" fill="url(#paint0_linear_3232_18005)"/>
</mask>
<g mask="url(#mask0_3232_18005)">
<path d="M424.199 216C424.199 315.411 343.61 396 244.199 396C144.788 396 64.1992 315.411 64.1992 216C64.1992 116.589 144.788 36 244.199 36C343.61 36 424.199 116.589 424.199 216Z" fill="url(#paint1_linear_3232_18005)"/>
<g opacity="0.8" filter="url(#filter0_d_3232_18005)">
<rect x="-111.132" y="130.137" width="452.399" height="321.6" rx="9.59999" fill="white"/>
<rect x="-111.132" y="130.137" width="452.399" height="321.6" rx="9.59999" fill="white"/>
<path d="M-111.132 139.737C-111.132 134.435 -106.834 130.137 -101.532 130.137H331.668C336.97 130.137 341.268 134.435 341.268 139.737V178.137H-111.132V139.737Z" fill="#EDEDF0"/>
<rect x="-51.1318" y="136.137" width="288" height="36" rx="6" fill="white"/>
<rect x="-29.5322" y="144.537" width="216" height="19.2" rx="2.4" fill="#EDEDF0"/>
<rect x="-29.5322" y="352.137" width="177" height="19.2" rx="2.4" fill="#EDEDF0"/>
<path d="M-110.986 178.199H341.413" stroke="#CFCFD8" stroke-width="1.2"/>
<path d="M263.239 140.287C254.402 140.287 247.239 147.45 247.239 156.287C247.239 165.124 254.402 172.287 263.239 172.287C272.076 172.287 279.239 165.124 279.239 156.287C279.239 147.45 272.076 140.287 263.239 140.287ZM276.649 155.024H271.583C271.31 150.881 269.73 146.961 267.093 143.824H268.342C272.876 145.686 276.174 149.949 276.649 155.024ZM263.598 168.75H262.875C259.694 165.86 257.747 161.857 257.422 157.55H269.056C268.731 161.863 266.781 165.86 263.598 168.75ZM257.422 155.024C257.747 150.727 259.689 146.714 262.865 143.824H263.616C266.791 146.715 268.733 150.729 269.058 155.024H257.422ZM258.136 143.824H259.387C256.75 146.96 255.169 150.879 254.896 155.024H249.83C250.305 149.949 253.602 145.686 258.136 143.824ZM249.83 157.55H254.896C255.169 161.703 256.752 165.614 259.393 168.75H258.136C253.602 166.887 250.305 162.625 249.83 157.55ZM268.342 168.75H267.108C269.744 165.619 271.313 161.705 271.584 157.55H276.649C276.174 162.625 272.876 166.887 268.342 168.75Z" fill="#0000FF"/>
</g>
<g opacity="0.7" filter="url(#filter1_dd_3232_18005)">
<rect x="-145.8" y="198.819" width="452.399" height="321.6" rx="9.59999" fill="white"/>
<rect x="-145.8" y="198.819" width="452.399" height="321.6" rx="9.59999" fill="white"/>
<path d="M-145.8 208.419C-145.8 203.117 -141.502 198.819 -136.2 198.819H297C302.302 198.819 306.6 203.117 306.6 208.419V246.819H-145.8V208.419Z" fill="#EDEDF0"/>
<rect x="-85.7998" y="204.819" width="288" height="36" rx="6" fill="white"/>
<rect x="-64.2002" y="213.219" width="216" height="19.2" rx="2.4" fill="#EDEDF0"/>
<rect x="-64.2002" y="358.419" width="288" height="19.2" rx="2.4" fill="#EDEDF0"/>
<rect x="-64.2002" y="389.619" width="288" height="19.2" rx="2.4" fill="#EDEDF0"/>
<path d="M-145.654 246.881H306.745" stroke="#CFCFD8" stroke-width="1.2"/>
</g>
<g clip-path="url(#clip0_3232_18005)">
<path d="M249.218 215.402C248.409 213.457 246.771 211.357 245.485 210.694C246.532 212.746 247.138 214.804 247.369 216.34C247.369 216.343 247.37 216.351 247.373 216.371C245.269 211.127 241.701 209.013 238.788 204.409C238.641 204.176 238.494 203.943 238.35 203.697C238.277 203.571 238.209 203.443 238.145 203.312C238.024 203.078 237.931 202.831 237.867 202.576C237.868 202.564 237.863 202.552 237.856 202.543C237.848 202.534 237.837 202.528 237.825 202.526C237.813 202.523 237.801 202.523 237.79 202.526C237.787 202.527 237.783 202.53 237.781 202.531C237.777 202.533 237.771 202.536 237.767 202.539C237.769 202.536 237.773 202.53 237.775 202.528C233.101 205.265 231.515 210.329 231.37 212.863C229.503 212.991 227.719 213.678 226.249 214.836C226.095 214.706 225.934 214.584 225.767 214.472C225.343 212.988 225.325 211.418 225.715 209.925C223.804 210.795 222.317 212.171 221.236 213.386H221.228C220.49 212.451 220.542 209.37 220.584 208.726C220.575 208.686 220.034 209.007 219.963 209.056C219.312 209.52 218.704 210.041 218.145 210.613C217.509 211.258 216.927 211.955 216.407 212.697C216.407 212.698 216.407 212.699 216.406 212.7C216.406 212.699 216.407 212.698 216.407 212.697C215.211 214.392 214.362 216.308 213.911 218.333C213.902 218.374 213.894 218.415 213.886 218.456C213.851 218.62 213.725 219.439 213.703 219.617C213.701 219.631 213.7 219.644 213.698 219.658C213.535 220.505 213.435 221.363 213.396 222.225C213.396 222.257 213.395 222.288 213.395 222.32C213.395 232.595 221.725 240.923 232.001 240.923C241.203 240.923 248.844 234.243 250.34 225.468C250.371 225.23 250.397 224.991 250.424 224.75C250.794 221.56 250.383 218.207 249.218 215.402ZM227.773 229.965C227.86 230.006 227.942 230.052 228.031 230.091C228.035 230.094 228.04 230.097 228.044 230.099C227.953 230.056 227.862 230.011 227.773 229.965ZM247.374 216.376L247.372 216.358C247.373 216.364 247.374 216.371 247.375 216.378L247.374 216.376Z" fill="url(#paint2_linear_3232_18005)"/>
<path d="M249.217 215.402C248.409 213.457 246.771 211.357 245.485 210.694C246.532 212.746 247.137 214.804 247.369 216.34C247.369 216.336 247.37 216.344 247.372 216.358C247.373 216.364 247.374 216.371 247.375 216.378C249.13 221.137 248.174 225.976 246.796 228.933C244.664 233.509 239.502 238.198 231.422 237.969C222.693 237.722 215.002 231.245 213.567 222.762C213.305 221.424 213.567 220.745 213.698 219.658C213.538 220.496 213.477 220.738 213.396 222.225C213.396 222.257 213.395 222.289 213.395 222.32C213.395 232.595 221.725 240.923 232 240.923C241.203 240.923 248.844 234.243 250.34 225.468C250.371 225.23 250.396 224.991 250.424 224.75C250.794 221.56 250.383 218.207 249.217 215.402Z" fill="url(#paint3_radial_3232_18005)"/>
<path d="M249.217 215.402C248.409 213.457 246.771 211.357 245.485 210.694C246.532 212.746 247.137 214.804 247.369 216.34C247.369 216.336 247.37 216.344 247.372 216.358C247.373 216.364 247.374 216.371 247.375 216.378C249.13 221.137 248.174 225.976 246.796 228.933C244.664 233.509 239.502 238.198 231.422 237.969C222.693 237.722 215.002 231.245 213.567 222.762C213.305 221.424 213.567 220.745 213.698 219.658C213.538 220.496 213.477 220.738 213.396 222.225C213.396 222.257 213.395 222.289 213.395 222.32C213.395 232.595 221.725 240.923 232 240.923C241.203 240.923 248.844 234.243 250.34 225.468C250.371 225.23 250.396 224.991 250.424 224.75C250.794 221.56 250.383 218.207 249.217 215.402Z" fill="url(#paint4_radial_3232_18005)"/>
<path d="M240.176 217.589C240.217 217.618 240.253 217.646 240.292 217.675C239.825 216.846 239.243 216.087 238.564 215.421C232.781 209.638 237.048 202.882 237.767 202.539C237.77 202.536 237.774 202.53 237.775 202.528C233.101 205.265 231.516 210.329 231.37 212.862C231.587 212.847 231.803 212.829 232.024 212.829C235.512 212.829 238.549 214.747 240.176 217.589Z" fill="url(#paint5_radial_3232_18005)"/>
<path d="M232.035 218.744C232.005 219.207 230.37 220.803 229.798 220.803C224.507 220.803 223.648 224.003 223.648 224.003C223.883 226.698 225.759 228.917 228.031 230.092C228.135 230.145 228.24 230.194 228.345 230.241C228.525 230.321 228.707 230.396 228.891 230.465C229.67 230.741 230.486 230.898 231.312 230.932C240.586 231.367 242.382 219.846 235.69 216.5C237.404 216.202 239.183 216.891 240.176 217.589C238.549 214.747 235.512 212.829 232.024 212.829C231.803 212.829 231.587 212.847 231.37 212.862C229.504 212.991 227.72 213.678 226.25 214.836C226.533 215.076 226.854 215.396 227.528 216.061C228.79 217.305 232.029 218.593 232.035 218.744Z" fill="url(#paint6_radial_3232_18005)"/>
<path d="M232.035 218.744C232.005 219.207 230.37 220.803 229.798 220.803C224.507 220.803 223.648 224.003 223.648 224.003C223.883 226.698 225.759 228.917 228.031 230.092C228.135 230.145 228.24 230.194 228.345 230.241C228.525 230.321 228.707 230.396 228.891 230.465C229.67 230.741 230.486 230.898 231.312 230.932C240.586 231.367 242.382 219.846 235.69 216.5C237.404 216.202 239.183 216.891 240.176 217.589C238.549 214.747 235.512 212.829 232.024 212.829C231.803 212.829 231.587 212.847 231.37 212.862C229.504 212.991 227.72 213.678 226.25 214.836C226.533 215.076 226.854 215.396 227.528 216.061C228.79 217.305 232.029 218.593 232.035 218.744Z" fill="url(#paint7_radial_3232_18005)"/>
<path d="M225.382 214.217C225.511 214.3 225.64 214.386 225.767 214.472C225.343 212.989 225.325 211.418 225.715 209.925C223.804 210.796 222.317 212.171 221.236 213.386C221.326 213.383 224.025 213.335 225.382 214.217Z" fill="url(#paint8_radial_3232_18005)"/>
<path d="M213.567 222.762C215.002 231.245 222.693 237.722 231.422 237.969C239.502 238.198 244.664 233.508 246.796 228.933C248.174 225.976 249.13 221.137 247.375 216.378L247.374 216.376L247.372 216.358C247.37 216.344 247.369 216.336 247.369 216.34C247.369 216.343 247.37 216.351 247.373 216.371C248.033 220.68 245.84 224.855 242.414 227.678L242.404 227.702C235.727 233.139 229.337 230.982 228.043 230.099C227.953 230.056 227.862 230.011 227.773 229.965C223.88 228.104 222.272 224.558 222.616 221.516C219.329 221.516 218.209 218.744 218.209 218.744C218.209 218.744 221.16 216.64 225.049 218.47C228.652 220.165 232.035 218.744 232.035 218.744C232.028 218.593 228.79 217.305 227.527 216.061C226.853 215.396 226.533 215.076 226.249 214.835C226.095 214.706 225.934 214.584 225.767 214.472C225.639 214.385 225.511 214.3 225.381 214.216C224.024 213.334 221.325 213.383 221.236 213.385H221.227C220.49 212.451 220.542 209.369 220.584 208.726C220.575 208.686 220.034 209.007 219.963 209.055C219.312 209.52 218.704 210.041 218.145 210.613C217.508 211.258 216.927 211.955 216.407 212.697C216.407 212.698 216.407 212.699 216.406 212.7C216.406 212.699 216.407 212.698 216.407 212.697C215.211 214.392 214.362 216.308 213.911 218.333C213.902 218.374 213.241 221.263 213.567 222.762Z" fill="url(#paint9_radial_3232_18005)"/>
<path d="M238.565 215.421C239.243 216.087 239.825 216.846 240.292 217.674C240.394 217.751 240.49 217.828 240.571 217.903C244.789 221.789 242.579 227.286 242.414 227.678C245.841 224.855 248.033 220.68 247.373 216.371C245.269 211.127 241.702 209.013 238.789 204.409C238.642 204.176 238.494 203.943 238.35 203.697C238.277 203.571 238.209 203.443 238.146 203.312C238.025 203.078 237.931 202.831 237.867 202.576C237.868 202.564 237.864 202.552 237.856 202.543C237.848 202.534 237.837 202.528 237.825 202.526C237.814 202.523 237.802 202.523 237.79 202.526C237.788 202.527 237.784 202.53 237.781 202.531C237.777 202.533 237.772 202.536 237.767 202.539C237.048 202.882 232.781 209.638 238.565 215.421Z" fill="url(#paint10_radial_3232_18005)"/>
<path d="M240.571 217.903C240.49 217.828 240.394 217.751 240.292 217.674C240.254 217.646 240.217 217.618 240.176 217.589C239.183 216.891 237.404 216.202 235.69 216.5C242.382 219.846 240.586 231.367 231.312 230.932C230.486 230.898 229.67 230.741 228.891 230.465C228.707 230.395 228.525 230.321 228.345 230.241C228.24 230.193 228.135 230.145 228.031 230.092C228.035 230.094 228.04 230.097 228.044 230.099C229.338 230.982 235.727 233.139 242.404 227.702L242.414 227.678C242.579 227.286 244.789 221.789 240.571 217.903Z" fill="url(#paint11_radial_3232_18005)"/>
<path d="M223.648 224.003C223.648 224.003 224.507 220.803 229.798 220.803C230.37 220.803 232.005 219.207 232.035 218.744C232.066 218.281 228.652 220.165 225.05 218.47C221.16 216.64 218.209 218.744 218.209 218.744C218.209 218.744 219.33 221.516 222.617 221.516C222.272 224.558 223.88 228.105 227.773 229.964C227.86 230.006 227.942 230.052 228.031 230.091C225.759 228.917 223.883 226.698 223.648 224.003Z" fill="url(#paint12_radial_3232_18005)"/>
<path d="M249.217 215.402C248.409 213.457 246.771 211.357 245.485 210.694C246.531 212.746 247.137 214.804 247.369 216.34C247.369 216.343 247.37 216.351 247.372 216.371C245.269 211.127 241.701 209.013 238.788 204.409C238.641 204.176 238.493 203.943 238.35 203.697C238.277 203.571 238.208 203.443 238.145 203.312C238.024 203.078 237.931 202.831 237.867 202.576C237.867 202.564 237.863 202.552 237.855 202.543C237.848 202.534 237.837 202.528 237.825 202.526C237.813 202.523 237.801 202.523 237.79 202.526C237.787 202.527 237.783 202.53 237.78 202.531C237.776 202.533 237.771 202.536 237.767 202.539C237.769 202.536 237.773 202.53 237.774 202.528C233.101 205.265 231.515 210.329 231.369 212.863C231.586 212.847 231.802 212.829 232.023 212.829C235.511 212.829 238.549 214.747 240.175 217.589C239.182 216.891 237.403 216.202 235.689 216.5C242.381 219.846 240.585 231.367 231.311 230.932C230.486 230.898 229.669 230.741 228.89 230.465C228.706 230.396 228.524 230.321 228.344 230.242C228.239 230.194 228.134 230.145 228.03 230.092C228.034 230.094 228.039 230.097 228.043 230.099C227.952 230.056 227.862 230.011 227.772 229.965C227.859 230.006 227.941 230.052 228.03 230.091C225.758 228.917 223.882 226.698 223.647 224.003C223.647 224.003 224.506 220.803 229.797 220.803C230.369 220.803 232.004 219.207 232.034 218.744C232.027 218.593 228.789 217.305 227.527 216.061C226.852 215.396 226.532 215.076 226.248 214.836C226.094 214.706 225.933 214.584 225.766 214.472C225.342 212.988 225.324 211.418 225.714 209.925C223.803 210.795 222.316 212.171 221.235 213.385H221.227C220.489 212.451 220.541 209.369 220.583 208.726C220.574 208.686 220.033 209.007 219.962 209.055C219.311 209.52 218.703 210.041 218.144 210.613C217.508 211.258 216.927 211.955 216.407 212.697C216.407 212.698 216.406 212.699 216.406 212.7C216.406 212.699 216.407 212.698 216.407 212.697C215.211 214.392 214.362 216.308 213.91 218.333C213.901 218.374 213.894 218.415 213.885 218.456C213.85 218.62 213.693 219.451 213.671 219.629C213.669 219.643 213.672 219.616 213.671 219.629C213.527 220.488 213.436 221.355 213.396 222.225C213.396 222.257 213.395 222.289 213.395 222.32C213.395 232.595 221.725 240.923 232 240.923C241.203 240.923 248.844 234.243 250.34 225.468C250.371 225.23 250.396 224.991 250.424 224.75C250.794 221.56 250.383 218.207 249.217 215.402ZM247.372 216.358C247.372 216.364 247.374 216.371 247.375 216.378L247.374 216.376L247.372 216.358Z" fill="url(#paint13_linear_3232_18005)"/>
</g>
</g>
<path fill-rule="evenodd" clip-rule="evenodd" d="M273.795 102.668C273.52 102.91 273.311 103.214 273.186 103.553C273.092 103.713 273.027 103.888 272.993 104.069C272.92 104.292 272.862 104.52 272.822 104.751C272.666 105.66 272.581 106.578 272.566 107.499L272.43 110.83C272.475 113.231 272.652 115.886 272.926 118.297C273.063 119.743 273.291 121.18 273.609 122.6C273.728 123.239 273.914 123.866 274.163 124.47C274.263 124.778 274.405 125.071 274.586 125.343C274.806 125.722 275.117 126.047 275.492 126.29C275.73 126.42 275.987 126.514 276.254 126.569C276.573 126.643 276.903 126.657 277.227 126.609L277.894 126.416C278.341 126.277 278.772 126.091 279.177 125.862C280.084 125.402 281.142 124.756 282.319 124.004C284.645 122.473 287.362 120.488 289.789 118.574C291.388 117.316 292.757 116.076 294.002 115.051C294.627 114.47 295.165 113.94 295.585 113.461C295.8 113.199 295.994 112.921 296.164 112.63C296.283 112.417 296.369 112.188 296.421 111.951C296.472 111.725 296.481 111.492 296.449 111.262C296.387 110.934 296.242 110.625 296.027 110.363C295.879 110.178 295.69 110.029 295.472 109.926C295.273 109.808 295.053 109.724 294.823 109.679L294.023 109.646L293.072 109.773C291.976 109.91 290.873 109.993 289.767 110.023C288.698 110.079 287.625 110.035 286.564 109.892C286.564 109.892 304.82 84.4033 322.551 80.0219C335.085 76.9249 346.379 76.8816 355.528 82.3548C369.362 90.6318 377.961 96.8141 390.34 97.2902C402.536 97.7592 408.317 91.7255 411.097 85.7737C412.851 82.0171 413.66 79.146 414.375 75.676L414.398 75.1254L415.37 75.1652C419.529 75.0597 423.75 74.8189 427.979 74.3854L429.13 74.2671C467.46 70.1557 494.71 53.9521 492.358 32.3438C492.285 31.7155 491.956 31.14 491.443 30.744C490.93 30.348 490.275 30.1639 489.622 30.2323C488.97 30.3007 488.373 30.6158 487.964 31.1085C487.554 31.6012 487.365 32.231 487.438 32.8594C489.392 50.8936 464.607 65.6538 428.639 69.4757C424.207 69.9561 419.783 70.2438 415.453 70.3422L415.167 70.3305L415.179 70.0552C416.563 53.1621 411.171 36.3802 400.11 23.1599L399.592 22.5319C384.273 4.11583 360.777 -3.49313 343.434 2.36038C325.103 8.53198 321.489 26.8344 337.585 47.93C350.666 65.0134 377.985 74.4062 408.61 75.1365L409.354 75.167L409.334 75.6626C409.334 75.6626 408.115 80.9008 406.476 83.8745C397.274 100.568 375.409 84.1011 358.479 75.4019C301.087 45.9118 282.129 107.642 282.129 107.642C282.129 107.642 278.415 104.544 276.829 102.737C276.691 102.582 276.533 102.446 276.359 102.331C276.116 102.162 275.837 102.047 275.542 101.994C275.198 101.898 274.835 101.884 274.484 101.951C274.2 102.042 273.939 102.192 273.721 102.389L273.795 102.668ZM395.15 25.3561C381.234 8.37644 360.148 1.39018 345.067 6.56413C330.335 11.5869 327.533 26.1443 341.713 45.0654C356.848 64.8739 386.033 70.161 409.404 70.453L409.547 70.4588L409.583 69.5778C410.813 53.6206 405.649 37.7965 395.15 25.3561Z" fill="url(#paint14_linear_3232_18005)"/>
<path fill-rule="evenodd" clip-rule="evenodd" d="M223.902 276.503C224.177 276.26 224.386 275.956 224.511 275.618C224.605 275.457 224.67 275.283 224.704 275.102C224.778 274.878 224.835 274.65 224.875 274.419C225.031 273.511 225.116 272.593 225.131 271.672L225.268 268.34C225.223 265.939 225.045 263.284 224.771 260.873C224.634 259.427 224.406 257.991 224.088 256.571C223.969 255.931 223.784 255.304 223.534 254.7C223.435 254.393 223.293 254.099 223.112 253.828C222.891 253.448 222.58 253.123 222.205 252.881C221.967 252.751 221.71 252.657 221.443 252.601C221.124 252.527 220.794 252.514 220.47 252.561L219.804 252.755C219.356 252.894 218.926 253.08 218.52 253.309C217.613 253.768 216.556 254.414 215.379 255.166C213.053 256.698 210.336 258.683 207.908 260.596C206.309 261.855 204.941 263.095 203.695 264.12C203.07 264.701 202.533 265.23 202.112 265.709C201.897 265.971 201.703 266.249 201.534 266.541C201.415 266.754 201.328 266.983 201.277 267.22C201.226 267.446 201.216 267.679 201.248 267.908C201.31 268.236 201.455 268.545 201.67 268.808C201.818 268.992 202.008 269.142 202.225 269.244C202.425 269.362 202.644 269.446 202.874 269.491L203.675 269.524L204.625 269.398C205.722 269.261 206.825 269.177 207.93 269.147C209 269.092 210.072 269.136 211.134 269.278C211.134 269.278 192.877 294.767 175.146 299.149C162.613 302.245 151.318 302.289 142.17 296.816C128.335 288.539 119.737 282.356 107.357 281.88C95.1614 281.411 89.3802 287.445 86.6005 293.397C84.8461 297.153 84.0371 300.024 83.3219 303.494L83.2994 304.045L82.3269 304.005C78.1684 304.111 73.9471 304.351 69.7178 304.785L68.567 304.903C30.2375 309.015 2.98693 325.218 5.33926 346.827C5.41231 347.455 5.74157 348.03 6.25457 348.426C6.76759 348.822 7.42231 349.007 8.07477 348.938C8.72722 348.87 9.32399 348.555 9.73369 348.062C10.1434 347.569 10.3325 346.939 10.2595 346.311C8.30508 328.277 33.0899 313.517 69.0584 309.695C73.4901 309.214 77.9139 308.927 82.244 308.828L82.53 308.84L82.5187 309.115C81.1343 326.008 86.5267 342.79 97.5871 356.011L98.1057 356.639C113.424 375.055 136.92 382.664 154.263 376.81C172.594 370.638 176.209 352.336 160.112 331.24C147.032 314.157 119.712 304.764 89.087 304.034L88.3434 304.003L88.3637 303.508C88.3637 303.508 89.582 298.27 91.2212 295.296C100.423 278.603 122.289 295.069 139.218 303.768C196.61 333.259 215.568 271.528 215.568 271.528C215.568 271.528 219.282 274.626 220.868 276.434C221.006 276.588 221.164 276.724 221.338 276.839C221.581 277.009 221.86 277.124 222.155 277.176C222.5 277.272 222.863 277.287 223.214 277.219C223.498 277.128 223.758 276.979 223.976 276.782L223.902 276.503ZM102.547 353.814C116.463 370.794 137.55 377.78 152.631 372.606C167.362 367.583 170.164 353.026 155.984 334.105C140.849 314.296 111.664 309.009 88.2936 308.717L88.1506 308.712L88.1145 309.593C86.8838 325.55 92.0485 341.374 102.547 353.814Z" fill="url(#paint15_linear_3232_18005)"/>
<defs>
<filter id="filter0_d_3232_18005" x="-115.932" y="127.737" width="462.145" height="331.2" filterUnits="userSpaceOnUse" color-interpolation-filters="sRGB">
<feFlood flood-opacity="0" result="BackgroundImageFix"/>
<feColorMatrix in="SourceAlpha" type="matrix" values="0 0 0 0 0 0 0 0 0 0 0 0 0 0 0 0 0 0 127 0" result="hardAlpha"/>
<feOffset dy="2.4"/>
<feGaussianBlur stdDeviation="2.4"/>
<feComposite in2="hardAlpha" operator="out"/>
<feColorMatrix type="matrix" values="0 0 0 0 0 0 0 0 0 0 0 0 0 0 0 0 0 0 0.3 0"/>
<feBlend mode="normal" in2="BackgroundImageFix" result="effect1_dropShadow_3232_18005"/>
<feBlend mode="normal" in="SourceGraphic" in2="effect1_dropShadow_3232_18005" result="shape"/>
</filter>
<filter id="filter1_dd_3232_18005" x="-150.6" y="194.019" width="464.545" height="336" filterUnits="userSpaceOnUse" color-interpolation-filters="sRGB">
<feFlood flood-opacity="0" result="BackgroundImageFix"/>
<feColorMatrix in="SourceAlpha" type="matrix" values="0 0 0 0 0 0 0 0 0 0 0 0 0 0 0 0 0 0 127 0" result="hardAlpha"/>
<feOffset dx="2.4"/>
<feGaussianBlur stdDeviation="2.4"/>
<feComposite in2="hardAlpha" operator="out"/>
<feColorMatrix type="matrix" values="0 0 0 0 0 0 0 0 0 0 0 0 0 0 0 0 0 0 0.3 0"/>
<feBlend mode="normal" in2="BackgroundImageFix" result="effect1_dropShadow_3232_18005"/>
<feColorMatrix in="SourceAlpha" type="matrix" values="0 0 0 0 0 0 0 0 0 0 0 0 0 0 0 0 0 0 127 0" result="hardAlpha"/>
<feOffset dy="4.8"/>
<feGaussianBlur stdDeviation="2.4"/>
<feComposite in2="hardAlpha" operator="out"/>
<feColorMatrix type="matrix" values="0 0 0 0 0 0 0 0 0 0 0 0 0 0 0 0 0 0 0.25 0"/>
<feBlend mode="normal" in2="effect1_dropShadow_3232_18005" result="effect2_dropShadow_3232_18005"/>
<feBlend mode="normal" in="SourceGraphic" in2="effect2_dropShadow_3232_18005" result="shape"/>
</filter>
<linearGradient id="paint0_linear_3232_18005" x1="424.199" y1="36" x2="64.1992" y2="396" gradientUnits="userSpaceOnUse">
<stop stop-color="#9059FF"/>
<stop offset="1" stop-color="#0250BB"/>
</linearGradient>
<linearGradient id="paint1_linear_3232_18005" x1="424.199" y1="36" x2="64.1992" y2="396" gradientUnits="userSpaceOnUse">
<stop stop-color="#9059FF"/>
<stop offset="1" stop-color="#0250BB"/>
</linearGradient>
<linearGradient id="paint2_linear_3232_18005" x1="245.818" y1="208.476" x2="215.943" y2="237.294" gradientUnits="userSpaceOnUse">
<stop offset="0.05" stop-color="#FFF44F"/>
<stop offset="0.37" stop-color="#FF980E"/>
<stop offset="0.53" stop-color="#FF3647"/>
<stop offset="0.7" stop-color="#E31587"/>
</linearGradient>
<radialGradient id="paint3_radial_3232_18005" cx="0" cy="0" r="1" gradientUnits="userSpaceOnUse" gradientTransform="translate(239.144 206.804) scale(38.0533 38.6942)">
<stop offset="0.13" stop-color="#FFBD4F"/>
<stop offset="0.28" stop-color="#FF980E"/>
<stop offset="0.47" stop-color="#FF3750"/>
<stop offset="0.78" stop-color="#EB0878"/>
<stop offset="0.86" stop-color="#E50080"/>
</radialGradient>
<radialGradient id="paint4_radial_3232_18005" cx="0" cy="0" r="1" gradientUnits="userSpaceOnUse" gradientTransform="translate(228.11 222.786) scale(39.0046 38.6942)">
<stop offset="0.3" stop-color="#960E18"/>
<stop offset="0.35" stop-color="#B11927" stop-opacity="0.74"/>
<stop offset="0.43" stop-color="#DB293D" stop-opacity="0.34"/>
<stop offset="0.5" stop-color="#F5334B" stop-opacity="0.09"/>
<stop offset="0.53" stop-color="#FF3750" stop-opacity="0"/>
</radialGradient>
<radialGradient id="paint5_radial_3232_18005" cx="0" cy="0" r="1" gradientUnits="userSpaceOnUse" gradientTransform="translate(235.652 200.71) scale(12.4901 21.2051)">
<stop offset="0.13" stop-color="#FFF44F"/>
<stop offset="0.53" stop-color="#FF980E"/>
</radialGradient>
<radialGradient id="paint6_radial_3232_18005" cx="0" cy="0" r="1" gradientUnits="userSpaceOnUse" gradientTransform="translate(227.41 232.775) scale(16.5277 18.1145)">
<stop offset="0.35" stop-color="#3A8EE6"/>
<stop offset="0.67" stop-color="#9059FF"/>
<stop offset="1" stop-color="#C139E6"/>
</radialGradient>
<radialGradient id="paint7_radial_3232_18005" cx="0" cy="0" r="1" gradientUnits="userSpaceOnUse" gradientTransform="translate(230.234 218.807) scale(8.77622 10.6876)">
<stop offset="0.21" stop-color="#9059FF" stop-opacity="0"/>
<stop offset="0.97" stop-color="#6E008B" stop-opacity="0.6"/>
</radialGradient>
<radialGradient id="paint8_radial_3232_18005" cx="0" cy="0" r="1" gradientUnits="userSpaceOnUse" gradientTransform="translate(230.751 205.378) scale(13.1396 13.1863)">
<stop offset="0.1" stop-color="#FFE226"/>
<stop offset="0.79" stop-color="#FF7139"/>
</radialGradient>
<radialGradient id="paint9_radial_3232_18005" cx="0" cy="0" r="1" gradientUnits="userSpaceOnUse" gradientTransform="translate(242.751 196.728) scale(62.7312 52.6593)">
<stop offset="0.11" stop-color="#FFF44F"/>
<stop offset="0.46" stop-color="#FF980E"/>
<stop offset="0.72" stop-color="#FF3647"/>
<stop offset="0.9" stop-color="#E31587"/>
</radialGradient>
<radialGradient id="paint10_radial_3232_18005" cx="0" cy="0" r="1" gradientUnits="userSpaceOnUse" gradientTransform="translate(219.454 214.118) rotate(77.3945) scale(19.9024 86.0952)">
<stop stop-color="#FFF44F"/>
<stop offset="0.3" stop-color="#FF980E"/>
<stop offset="0.57" stop-color="#FF3647"/>
<stop offset="0.74" stop-color="#E31587"/>
</radialGradient>
<radialGradient id="paint11_radial_3232_18005" cx="0" cy="0" r="1" gradientUnits="userSpaceOnUse" gradientTransform="translate(230.887 210.121) scale(36.017 35.3841)">
<stop offset="0.14" stop-color="#FFF44F"/>
<stop offset="0.48" stop-color="#FF980E"/>
<stop offset="0.66" stop-color="#FF3647"/>
<stop offset="0.9" stop-color="#E31587"/>
</radialGradient>
<radialGradient id="paint12_radial_3232_18005" cx="0" cy="0" r="1" gradientUnits="userSpaceOnUse" gradientTransform="translate(240.235 212.19) scale(43.2912 38.729)">
<stop offset="0.09" stop-color="#FFF44F"/>
<stop offset="0.63" stop-color="#FF980E"/>
</radialGradient>
<linearGradient id="paint13_linear_3232_18005" x1="243.124" y1="207.9" x2="219.234" y2="234.002" gradientUnits="userSpaceOnUse">
<stop offset="0.17" stop-color="#FFF44F" stop-opacity="0.8"/>
<stop offset="0.6" stop-color="#FFF44F" stop-opacity="0"/>
</linearGradient>
<linearGradient id="paint14_linear_3232_18005" x1="469.744" y1="-26.5691" x2="272.464" y2="17.5978" gradientUnits="userSpaceOnUse">
<stop stop-color="#6173FF"/>
<stop offset="0.52" stop-color="#F10366"/>
<stop offset="1" stop-color="#FF9100"/>
</linearGradient>
<linearGradient id="paint15_linear_3232_18005" x1="27.9533" y1="405.74" x2="225.233" y2="361.573" gradientUnits="userSpaceOnUse">
<stop stop-color="#FF9100"/>
<stop offset="0.52" stop-color="#F10366"/>
<stop offset="1" stop-color="#6173FF"/>
</linearGradient>
<clipPath id="clip0_3232_18005">
<rect width="38.4" height="38.4" fill="white" transform="translate(212.595 202.524)"/>
</clipPath>
</defs>
</svg>
